<?xml version="1.0" standalone="no"?><!DOCTYPE svg PUBLIC "-//W3C//DTD SVG 1.1//EN" "http://www.w3.org/Graphics/SVG/1.1/DTD/svg11.dtd"><svg t="1653632782069" class="icon" viewBox="0 0 1024 1024" version="1.1" xmlns="http://www.w3.org/2000/svg" p-id="8342" width="48" height="48" xmlns:xlink="http://www.w3.org/1999/xlink"><defs><style type="text/css"></style></defs><path d="M32 0v1024h731.52v-68.288H100.224V68.288h785.024V380.16H953.6V0z" fill="#515151" p-id="8343"></path><path d="M753.6 838.656a167.232 167.232 0 0 1-72.384-17.088l197.952-251.904c25.728 29.312 40 66.88 40.32 105.856a164.48 164.48 0 0 1-165.888 163.136z m-165.568-163.2a164.864 164.864 0 0 1 236.544-147.072l-197.312 251.52a160.768 160.768 0 0 1-39.232-104.384z m165.568-231.68a231.744 231.744 0 1 0 234.112 231.68 233.152 233.152 0 0 0-234.112-231.68z m-529.792 307.2h143.36v-68.288h-143.36v68.224z m0-162.56H426.24V520.256H223.808v68.288z m0-162.432h301.056V357.696H223.808v68.288z m0-162.816h458.752V194.88H223.808v68.288z" fill="#515151" p-id="8344"></path></svg>