<svg width="32" height="32" viewBox="0 0 32 32" fill="none" xmlns="http://www.w3.org/2000/svg">
<g clip-path="url(#clip0_128_676)">
<path d="M27.4489 7.85956C23.7238 5.07236 20.1552 5.15044 20.1552 5.15044L19.7904 5.56708C24.2189 6.89572 26.2768 8.84932 26.2768 8.84932C19.9411 5.361 11.8707 5.38596 5.28061 8.84932C5.28061 8.84932 7.41661 6.7914 12.1056 5.46276L11.8451 5.15012C11.8451 5.15012 8.30237 5.07204 4.55133 7.85924C4.55133 7.85924 0.800293 14.6061 0.800293 22.9159C0.800293 22.9159 2.98845 26.6669 8.74557 26.8493C8.74557 26.8493 9.70941 25.7031 10.4909 24.7133C7.18237 23.7236 5.93213 21.6656 5.93213 21.6656C8.01053 22.9661 10.1123 23.7802 12.7312 24.2967C16.9923 25.1738 22.2925 24.272 26.2509 21.6656C26.2509 21.6656 24.9485 23.7757 21.536 24.7396C22.3174 25.7034 23.2553 26.8234 23.2553 26.8234C29.0118 26.6413 31.2 22.8903 31.2 22.9162C31.2 14.6064 27.4489 7.85956 27.4489 7.85956ZM11.1417 20.4938C9.68285 20.4938 8.48477 19.2173 8.48477 17.6282C8.59133 13.8228 13.719 13.8346 13.799 17.6282C13.7987 19.2173 12.6265 20.4938 11.1417 20.4938ZM20.6499 20.4938C19.191 20.4938 17.9929 19.2173 17.9929 17.6282C18.1101 13.8301 23.1737 13.8285 23.3072 17.6282C23.3069 19.2173 22.1347 20.4938 20.6499 20.4938Z" fill="#2E3034"/>
</g>
<defs>
<clipPath id="clip0_128_676">
<rect width="32" height="32" fill="white"/>
</clipPath>
</defs>
</svg>
