<svg width="30" height="25" viewBox="0 0 30 25" fill="none" xmlns="http://www.w3.org/2000/svg">
<path d="M30 3.41444C28.8715 3.89023 27.678 4.20643 26.4562 4.35332C27.7438 3.61495 28.7064 2.44578 29.1619 1.06725C27.9563 1.75843 26.6373 2.24515 25.2619 2.50638C24.4186 1.63598 23.324 1.03086 22.1203 0.769631C20.9166 0.508405 19.6595 0.603151 18.5122 1.04156C17.3649 1.47997 16.3806 2.24177 15.687 3.228C14.9935 4.21423 14.6228 5.37929 14.6231 6.57182C14.6231 7.04307 14.6644 7.49619 14.7656 7.92757C12.3189 7.81161 9.92504 7.19776 7.74056 6.12615C5.55609 5.05455 3.63018 3.54932 2.08875 1.70888C1.29904 3.01725 1.05489 4.56739 1.40603 6.04366C1.75717 7.51993 2.67719 8.81132 3.97875 9.65488C3.00517 9.62964 2.05214 9.3785 1.2 8.92263V8.98788C1.20163 10.3607 1.6925 11.6911 2.58997 12.7551C3.48744 13.8191 4.73672 14.5517 6.1275 14.8296C5.60135 14.9636 5.0591 15.0294 4.515 15.0253C4.12423 15.032 3.73385 14.998 3.35062 14.9238C3.74801 16.1038 4.51404 17.1357 5.54324 17.8774C6.57243 18.6191 7.81418 19.0341 9.0975 19.0654C6.92051 20.7112 4.23558 21.604 1.47188 21.6011C0.9675 21.6011 0.48375 21.5793 0 21.5195C2.81228 23.2714 6.08939 24.1981 9.435 24.1875C20.7525 24.1875 26.94 15.125 26.94 7.26963C26.94 7.00682 26.9306 6.75307 26.9175 6.50113C28.1306 5.66192 29.1751 4.61591 30 3.41444Z" fill="#2E3034"/>
</svg>
